<?xml version="1.0" encoding="iso-8859-1"?>
<!-- Generator: Adobe Illustrator 19.0.0, SVG Export Plug-In . SVG Version: 6.00 Build 0)  -->
<svg version="1.1" id="Layer_1" xmlns="http://www.w3.org/2000/svg" xmlns:xlink="http://www.w3.org/1999/xlink" x="0px" y="0px"
	 viewBox="0 0 512 512" style="enable-background:new 0 0 512 512;" xml:space="preserve">
<circle style="fill:#CD2900;" cx="256" cy="256" r="256"/>
<path style="fill:#AC2201;" d="M256,0c-11.317,0-22.461,0.744-33.391,2.167C348.216,18.53,445.217,125.933,445.217,256
	s-97.002,237.47-222.609,253.833C233.539,511.256,244.683,512,256,512c141.385,0,256-114.616,256-256S397.385,0,256,0z"/>
<path style="fill:#C0AB91;" d="M199.791,289.619v-90.157h90.157v85.064c0,2.813-2.28,5.092-5.092,5.092H199.791z"/>
<path style="fill:#D9CBBD;" d="M160.835,200.576v-90.157H396.16c2.813,0,5.092,2.28,5.092,5.092v79.972
	c0,2.813-2.28,5.092-5.092,5.092H160.835z"/>
<path style="fill:#FFFFFF;" d="M110.748,395.831V115.512c0-2.813,2.28-5.092,5.092-5.092h85.064v285.412
	c0,2.813-2.28,5.092-5.092,5.092H115.84C113.027,400.924,110.748,398.643,110.748,395.831z"/>
<g>
</g>
<g>
</g>
<g>
</g>
<g>
</g>
<g>
</g>
<g>
</g>
<g>
</g>
<g>
</g>
<g>
</g>
<g>
</g>
<g>
</g>
<g>
</g>
<g>
</g>
<g>
</g>
<g>
</g>
</svg>
